<svg width="18" height="20" viewBox="0 0 18 20" fill="none" xmlns="http://www.w3.org/2000/svg">
<path id="Vector" d="M17.4223 10C17.4229 10.2612 17.3559 10.5181 17.2279 10.7457C17.0998 10.9733 16.9151 11.1639 16.6915 11.299L2.83835 19.7736C2.60479 19.9166 2.33728 19.9947 2.06346 19.9997C1.78964 20.0048 1.51943 19.9367 1.28073 19.8024C1.04431 19.6702 0.847364 19.4775 0.710147 19.2439C0.572931 19.0104 0.500395 18.7445 0.5 18.4736V1.52637C0.500395 1.2555 0.572931 0.989628 0.710147 0.756089C0.847364 0.52255 1.04431 0.329774 1.28073 0.197586C1.51943 0.063312 1.78964 -0.00480701 2.06346 0.000263782C2.33728 0.00533457 2.60479 0.0834115 2.83835 0.226431L16.6915 8.70103C16.9151 8.83609 17.0998 9.0267 17.2279 9.25432C17.3559 9.48195 17.4229 9.73883 17.4223 10Z" fill="#F2F2F2"/>
</svg>
