<svg width="150" height="150" viewBox="0 0 150 150" fill="none" xmlns="http://www.w3.org/2000/svg">
<g clip-path="url(#clip0_164_5814)">
<rect x="0.5" y="-0.5" width="149" height="149" fill="#D9D9D9" stroke="#F2F2F2"/>
<path d="M72.9999 92.4659C64.6583 92.4659 57.5173 89.4143 51.577 83.3113C45.6367 77.2083 42.6666 69.8717 42.6666 61.3015C42.6666 52.7313 45.6367 45.3947 51.577 39.2916C57.5173 33.1886 64.6583 30.1371 72.9999 30.1371C81.3416 30.1371 88.4826 33.1886 94.4228 39.2916C100.363 45.3947 103.333 52.7313 103.333 61.3015C103.333 69.8717 100.363 77.2083 94.4228 83.3113C88.4826 89.4143 81.3416 92.4659 72.9999 92.4659ZM12.3333 149.178V132.98C12.3333 128.565 13.4404 124.505 15.6548 120.802C17.8691 117.099 20.8064 114.276 24.4666 112.333C32.3027 108.308 40.2652 105.287 48.3541 103.272C56.443 101.257 64.6583 100.252 72.9999 100.257C81.3416 100.257 89.5569 101.265 97.6458 103.28C105.735 105.295 113.697 108.313 121.533 112.333C125.199 114.281 128.138 117.106 130.353 120.81C132.567 124.513 133.672 128.57 133.667 132.98V149.178H12.3333Z" fill="#221D2E"/>
<path d="M136.5 21.4041H145.875M141.187 3.74575C141.602 3.32 142.164 3.08081 142.75 3.08081C143.04 3.08081 143.328 3.13953 143.596 3.25362C143.864 3.36771 144.107 3.53494 144.312 3.74575C144.518 3.95656 144.68 4.20683 144.792 4.48227C144.903 4.75771 144.96 5.05293 144.96 5.35106C144.96 5.64919 144.903 5.94441 144.792 6.21985C144.68 6.49528 144.518 6.74556 144.312 6.95637L131.292 20.3339L127.125 21.4041L128.167 17.1233L141.187 3.74575Z" stroke="#221D2E" stroke-width="2.08333" stroke-linecap="round" stroke-linejoin="round"/>
</g>
<rect x="0.5" y="0.5" width="149" height="149" stroke="#F2F2F2"/>
<defs>
<clipPath id="clip0_164_5814">
<rect width="150" height="150" fill="white"/>
</clipPath>
</defs>
</svg>
