<svg width="186" height="30" viewBox="0 0 186 30" fill="none" xmlns="http://www.w3.org/2000/svg">
<path d="M38.3993 22.5V30H32.4774V23.1398C32.4774 18.8033 31.1738 17.7725 27.3376 17.7725H5.92191V30H0V0H5.92191V12.2275H27.4493C31.3973 12.2275 32.1794 10.6991 32.1794 6.82464V0H38.1386V7.07346C38.1386 11.3389 36.3136 13.5427 33.8554 14.6445C37.0212 15.6754 38.3993 18.6256 38.3993 22.5Z" fill="#221D2E"/>
<path d="M55.7181 0H49.7589V30H55.7181V0Z" fill="#221D2E"/>
<path d="M118.252 7.35782V30H112.293V7.57109C112.293 6.04265 111.846 5.33175 109.909 5.33175H103.913C102.199 5.33175 101.752 6.04265 101.752 7.67773V22.3578C101.752 27.4408 99.5178 30 93.2607 30H92.6275C86.3704 30 84.1358 27.4408 84.1358 22.3578V7.67773C84.1358 6.04265 83.6516 5.33175 82.0128 5.33175H75.9792C74.0424 5.33175 73.5955 6.04265 73.5955 7.57109V30H67.6364V7.35782C67.6364 3.2346 70.467 0 75.2343 0H82.348C87.4878 0 90.0577 2.38152 90.0577 7.42891V22.2512C90.0577 23.8152 91.026 24.4905 92.4786 24.4905H93.4469C94.8622 24.4905 95.8678 23.8152 95.8678 22.2512V7.42891C95.8678 2.38152 98.4005 0 103.54 0H110.691C115.421 0 118.252 3.2346 118.252 7.35782Z" fill="#221D2E"/>
<path d="M136.129 0H130.17V30H136.129V0Z" fill="#221D2E"/>
<path d="M186 30H179.668L176.391 17.737H158.551L159.929 12.1919H174.827L173.672 8.03318C173.151 6.25592 172.108 5.33175 170.506 5.33175H161.94C160.264 5.33175 159.147 6.25592 158.662 8.03318L152.778 30H146.483L152.368 8.03318C153.821 2.63033 156.837 0 161.53 0H170.879C175.571 0 178.626 2.63033 180.078 8.03318L186 30Z" fill="#221D2E"/>
</svg>
