<?xml version="1.0" encoding="UTF-8"?>
<svg id="Layer_2" data-name="Layer 2" xmlns="http://www.w3.org/2000/svg" viewBox="0 0 49.94 8.44">
  <defs>
    <style>
      .cls-1 {
        fill: #f2f2f2;
      }
    </style>
  </defs>
  <g id="Layer_1-2" data-name="Layer 1">
    <g>
      <path class="cls-1" d="m10.31,6.33v2.11h-1.59v-1.93c0-1.22-.35-1.51-1.38-1.51H1.59v3.44H0V0h1.59v3.44h5.78c1.06,0,1.27-.43,1.27-1.52V0h1.6v1.99c0,1.2-.49,1.82-1.15,2.13.85.29,1.22,1.12,1.22,2.21Z"/>
      <rect class="cls-1" x="13.36" width="1.6" height="8.44"/>
      <path class="cls-1" d="m31.75,2.07v6.37h-1.6V2.13c0-.43-.12-.63-.64-.63h-1.61c-.46,0-.58.2-.58.66v4.13c0,1.43-.6,2.15-2.28,2.15h-.17c-1.68,0-2.28-.72-2.28-2.15V2.16c0-.46-.13-.66-.57-.66h-1.62c-.52,0-.64.2-.64.63v6.31h-1.6V2.07c0-1.16.76-2.07,2.04-2.07h1.91c1.38,0,2.07.67,2.07,2.09v4.17c0,.44.26.63.65.63h.26c.38,0,.65-.19.65-.63V2.09c0-1.42.68-2.09,2.06-2.09h1.92c1.27,0,2.03.91,2.03,2.07Z"/>
      <rect class="cls-1" x="34.95" width="1.6" height="8.44"/>
      <path class="cls-1" d="m49.94,8.44h-1.7l-.88-3.45h-4.79l.37-1.56h4l-.31-1.17c-.14-.5-.42-.76-.85-.76h-2.3c-.45,0-.75.26-.88.76l-1.58,6.18h-1.69l1.58-6.18c.39-1.52,1.2-2.26,2.46-2.26h2.51c1.26,0,2.08.74,2.47,2.26l1.59,6.18Z"/>
    </g>
  </g>
</svg>